<svg width="151" height="34" viewBox="0 0 151 34" fill="none" xmlns="http://www.w3.org/2000/svg">
<g clip-path="url(#clip0_3183_6701)">
<path d="M60.2233 4.94873H49.3337C48.6909 4.94873 48.3707 5.27025 48.3707 5.90864V24.9787C48.3707 25.6195 48.6909 25.9387 49.3337 25.9387H51.6804C52.3208 25.9387 52.6433 25.6195 52.6433 24.9787V17.4369H59.501C60.1415 17.4369 60.464 17.1177 60.464 16.4793V14.7389C60.464 14.1005 60.1415 13.779 59.501 13.779H52.6433V8.60665H60.2233C60.8637 8.60665 61.1839 8.28746 61.1839 7.64907V5.90864C61.1839 5.27025 60.8637 4.94873 60.2233 4.94873Z" fill="#2E2E35"/>
<path d="M78.0827 14.0654C77.3348 12.8259 76.2993 11.8451 74.9764 11.1251C73.6535 10.4075 72.1786 10.0464 70.5542 10.0464C68.0977 10.0464 66.0432 10.8316 64.3884 12.3996C62.7335 13.9699 61.9061 15.8944 61.9061 18.173C61.9061 20.4516 62.7335 22.3761 64.3884 23.9441C66.0432 25.5122 68.0977 26.2973 70.5542 26.2973C72.1786 26.2973 73.6535 25.9385 74.9764 25.2186C76.2993 24.4987 77.3348 23.5201 78.0827 22.2806C78.8283 21.0411 79.2023 19.6711 79.2023 18.173C79.2023 16.6749 78.8283 15.3049 78.0827 14.0654ZM73.7657 21.365C72.8985 22.2247 71.828 22.6557 70.5542 22.6557C69.2804 22.6557 68.2122 22.2247 67.3521 21.365C66.4896 20.5052 66.0572 19.4405 66.0572 18.173C66.0572 16.9056 66.4896 15.8501 67.3521 14.9857C68.2122 14.1214 69.2804 13.6903 70.5542 13.6903C71.828 13.6903 72.8985 14.1214 73.7657 14.9857C74.6328 15.8501 75.0676 16.9126 75.0676 18.173C75.0676 19.4335 74.6328 20.5052 73.7657 21.365Z" fill="#2E2E35"/>
<path d="M94.3177 11.7775C93.1748 10.6242 91.6859 10.0464 89.8511 10.0464C88.0163 10.0464 86.5765 10.7454 85.4125 12.1456V11.3651C85.4125 10.7267 85.0923 10.4075 84.4519 10.4075H82.2408C81.598 10.4075 81.2778 10.7267 81.2778 11.3651V24.9786C81.2778 25.6193 81.598 25.9385 82.2408 25.9385H84.4519C85.0923 25.9385 85.4125 25.6193 85.4125 24.9786V17.4834C85.4125 16.3441 85.7561 15.4261 86.4433 14.7318C87.1305 14.0375 87.9649 13.6903 88.9489 13.6903C89.7506 13.6903 90.4425 13.9862 91.0244 14.5827C91.6041 15.1768 91.8963 15.9037 91.8963 16.7634V24.9786C91.8963 25.6193 92.2165 25.9385 92.8592 25.9385H95.068C95.7108 25.9385 96.031 25.6193 96.031 24.9786V16.3278C96.031 14.4499 95.4607 12.9331 94.3177 11.7775Z" fill="#2E2E35"/>
<path d="M113.629 4.04932H111.462C110.822 4.04932 110.499 4.37084 110.499 5.00923V12.2645C109.155 10.7873 107.425 10.0464 105.31 10.0464C103.887 10.0464 102.599 10.4076 101.447 11.1252C100.292 11.8451 99.3944 12.826 98.754 14.0655C98.1112 15.305 97.791 16.6726 97.791 18.1731C97.791 19.6735 98.1112 21.0412 98.754 22.2807C99.3944 23.5202 100.292 24.4987 101.447 25.2186C102.599 25.9386 103.887 26.2974 105.31 26.2974C107.425 26.2974 109.155 25.5588 110.499 24.0793V24.9787C110.499 25.6194 110.822 25.9386 111.462 25.9386H113.629C114.269 25.9386 114.592 25.6194 114.592 24.9787V5.00923C114.592 4.37084 114.269 4.04932 113.629 4.04932ZM109.251 21.358C108.419 22.2224 107.402 22.6558 106.198 22.6558C104.995 22.6558 103.997 22.2247 103.176 21.365C102.353 20.5053 101.942 19.4405 101.942 18.1731C101.942 16.9056 102.353 15.8502 103.176 14.9858C103.997 14.1214 105.004 13.6904 106.198 13.6904C107.393 13.6904 108.419 14.1214 109.251 14.9858C110.083 15.8502 110.499 16.9126 110.499 18.1731C110.499 19.4335 110.083 20.4936 109.251 21.358Z" fill="#2E2E35"/>
<path d="M132.502 10.4075H130.336C129.695 10.4075 129.375 10.7267 129.375 11.3651V12.2644C128.031 10.7873 126.302 10.0464 124.186 10.0464C122.763 10.0464 121.473 10.4075 120.32 11.1251C119.168 11.8451 118.271 12.8259 117.628 14.0654C116.987 15.3049 116.665 16.6726 116.665 18.173C116.665 19.6735 116.987 21.0411 117.628 22.2806C118.271 23.5201 119.168 24.4987 120.32 25.2186C121.473 25.9385 122.763 26.2973 124.186 26.2973C126.302 26.2973 128.031 25.5588 129.375 24.0793V24.9786C129.375 25.6193 129.695 25.9385 130.336 25.9385H132.502C133.143 25.9385 133.465 25.6193 133.465 24.9786V11.3651C133.465 10.7267 133.143 10.4075 132.502 10.4075ZM128.127 21.358C127.293 22.2224 126.276 22.6557 125.072 22.6557C123.868 22.6557 122.873 22.2247 122.05 21.365C121.227 20.5052 120.816 19.4405 120.816 18.173C120.816 16.9056 121.227 15.8501 122.05 14.9857C122.873 14.1214 123.88 13.6903 125.072 13.6903C126.264 13.6903 127.293 14.1214 128.127 14.9857C128.959 15.8501 129.375 16.9126 129.375 18.173C129.375 19.4335 128.959 20.4936 128.127 21.358Z" fill="#2E2E35"/>
<path d="M150.039 10.4077H147.828C147.185 10.4077 146.865 10.7269 146.865 11.3653V18.6811C146.865 19.8717 146.526 20.8316 145.851 21.5609C145.173 22.2901 144.334 22.6559 143.331 22.6559C142.53 22.6559 141.838 22.3577 141.256 21.7636C140.674 21.1695 140.384 20.4402 140.384 19.5828V11.3653C140.384 10.7269 140.061 10.4077 139.421 10.4077H137.21C136.567 10.4077 136.247 10.7269 136.247 11.3653V20.0162C136.247 21.8964 136.819 23.4131 137.962 24.5664C139.105 25.7197 140.594 26.2975 142.429 26.2975C144.264 26.2975 145.692 25.6032 146.865 24.2146V24.9788C146.865 25.6195 147.185 25.9387 147.828 25.9387H150.039C150.68 25.9387 151 25.6195 151 24.9788V11.3653C151 10.7269 150.68 10.4077 150.039 10.4077Z" fill="#2E2E35"/>
<path d="M40.5081 17.8679C40.2721 13.483 38.3508 8.84191 35.1907 5.38669C34.1296 4.23107 32.6758 3.48551 31.1098 3.34338C31.1028 3.34105 31.0958 3.34105 31.0887 3.34105C24.7125 2.75159 19.4886 6.22079 16.5156 11.731C19.2596 5.50552 24.411 2.03632 30.8036 1.88721L30.7849 1.87556C29.7284 1.29309 28.5504 0.950593 27.3397 0.903995C27.0241 0.894676 26.7063 0.890016 26.3931 0.890016C19.5634 0.880696 13.8651 4.75296 10.525 10.5963C13.1662 5.07682 17.558 1.41424 23.0086 0C22.0129 0.0326184 20.9845 0.163092 19.9304 0.4054C3.98989 4.05167 3.97119 21.8613 3.97119 21.9405C3.97119 21.9405 4.70745 26.9638 13.615 27.9353C14.0754 27.9866 14.5476 28.0215 15.0267 28.0471C15.2534 28.0565 15.4825 28.0681 15.7139 28.0751H15.7443C16.4408 28.0937 17.1537 28.0844 17.8806 28.0495C18.4322 28.0238 18.9908 27.9889 19.5541 27.9353C19.7972 27.912 20.0449 27.8864 20.295 27.8584C20.5545 27.8281 20.8162 27.7978 21.0804 27.7606C21.6039 27.693 22.1368 27.6161 22.6651 27.5229C22.9338 27.4763 23.198 27.4297 23.4621 27.3761C23.7776 27.3202 24.0885 27.255 24.3993 27.1921C24.5887 27.1501 24.778 27.1105 24.9673 27.0663C25.5376 26.9381 26.1103 26.796 26.6806 26.6446C26.8091 26.6119 26.9377 26.577 27.0662 26.5397C28.0269 26.2811 28.9781 25.9852 29.9177 25.6613C30.1211 25.5938 30.3244 25.5216 30.5278 25.447C30.7498 25.3678 30.9719 25.2862 31.1916 25.2047C31.4113 25.1231 31.6287 25.0393 31.846 24.9531C31.8507 24.9531 31.8577 24.9507 31.8624 24.9484C32.026 24.8832 32.1896 24.8179 32.3509 24.7504C32.3883 24.7364 32.4257 24.7201 32.4631 24.7061C32.6898 24.6129 32.9142 24.5174 33.1386 24.4218C33.3933 24.3147 33.6388 24.2052 33.8842 24.091C33.9239 24.077 33.9636 24.0584 34.0034 24.0374C34.1226 23.9862 34.2394 23.9326 34.354 23.8767C34.4288 23.8417 34.5012 23.8068 34.5737 23.7718C34.6157 23.7508 34.6602 23.7299 34.7022 23.7089C34.9219 23.611 35.1346 23.5039 35.345 23.3967C35.3917 23.3757 35.4385 23.3501 35.4852 23.3245C35.5998 23.2709 35.7026 23.215 35.8148 23.1544C35.7213 23.1893 36.0485 22.975 36.2986 22.8235C36.7076 22.5882 37.1027 22.3459 37.4883 22.0826C37.7174 21.9335 37.9417 21.7798 38.1568 21.6167C39.4353 20.6661 40.431 19.4895 40.5105 17.9378V17.9238C40.5105 17.9052 40.5058 17.8842 40.5058 17.8679H40.5081ZM16.9059 20.7127L12.6263 20.0184L12.666 25.3608C12.666 25.5891 12.4533 25.7569 12.2313 25.701L9.71632 25.0626C9.56205 25.0253 9.45454 24.8855 9.45454 24.7271L9.42415 19.4615L13.6687 17.6023L16.8615 18.0962C17.0298 18.1242 17.1724 18.2849 17.1747 18.455L17.2121 20.4494C17.2144 20.6218 17.0765 20.7406 16.9059 20.7127ZM17.5814 16.0622L12.5912 15.319L12.6006 16.5911L9.42415 17.9867V14.4266L12.9769 12.854L17.5323 13.4993C17.7029 13.5226 17.8338 13.6764 17.8362 13.8465L17.8759 15.7989C17.8806 15.9714 17.7543 16.0879 17.5814 16.0622Z" fill="#FF8D4F"/>
<path d="M39.7952 24.0398C36.7169 25.7407 31.9044 28.1451 25.8157 29.6432C23.7612 30.9363 22.4126 31.7984 22.4126 31.7984C15.0337 37.2596 2.31399 31.2042 0.406738 28.1498C-1.50051 25.0953 3.97582 21.9406 3.97582 21.9406C3.97582 21.9406 4.71208 26.9639 13.6196 27.9354C14.08 27.9843 14.5522 28.0216 15.0313 28.0449C15.2604 28.0566 15.4894 28.0659 15.7208 28.0729H15.7489C16.4454 28.0915 17.1606 28.0845 17.8852 28.0472C18.4391 28.0216 18.9954 27.9867 19.561 27.9331C19.8041 27.9075 20.0495 27.8842 20.2996 27.8539C20.5614 27.8259 20.8209 27.7933 21.085 27.7583C21.6109 27.6908 22.1414 27.6116 22.672 27.5207C22.9408 27.4741 23.2049 27.4275 23.469 27.3739C23.7822 27.318 24.0931 27.2528 24.404 27.1898C24.5933 27.1479 24.7826 27.1083 24.9719 27.064C25.5446 26.9359 26.1149 26.7938 26.6875 26.64C26.8161 26.6074 26.9446 26.5724 27.0732 26.5375C28.0338 26.2765 28.9851 25.983 29.9224 25.6591C30.1257 25.5915 30.3291 25.5193 30.5324 25.4448C31.4229 25.1279 32.2924 24.7854 33.1432 24.4196C33.3956 24.3124 33.6434 24.2029 33.8888 24.0888C33.9285 24.0748 33.9683 24.0562 34.0057 24.0352C34.2417 23.9327 34.4731 23.8208 34.7069 23.7067C34.9242 23.6065 35.1393 23.4993 35.3496 23.3945C35.3964 23.3735 35.4431 23.3479 35.4899 23.3222C35.6044 23.2687 35.7072 23.2127 35.8194 23.1522H35.8241C35.8241 23.1522 35.8428 23.1452 35.8498 23.1405C36.0064 23.0799 36.163 23.0194 36.3219 22.9564C36.9857 22.6885 37.6542 22.3949 38.2783 22.0525C39.7601 21.2486 41.0223 20.1862 41.5178 18.6089C41.6651 18.8372 41.7702 19.1028 41.8497 19.3917C42.3359 21.2137 41.4524 23.1265 39.7999 24.0375L39.7952 24.0398Z" fill="#E26F3B"/>
<path d="M37.4906 22.0827C37.1049 22.346 36.7076 22.5883 36.3009 22.8236C36.2378 22.2691 36.177 21.7099 36.1046 21.1531C35.373 16.5982 33.7111 11.8569 30.0977 8.77441C34.4708 11.6542 36.8478 16.6634 38.1591 21.6167C37.944 21.7798 37.7196 21.9336 37.4906 22.0827Z" fill="#E26F3B"/>
<path d="M38.4536 22.7979L36.3313 23.1218C36.3243 23.0682 36.3196 23.0123 36.3126 22.9587C36.9764 22.6907 37.6449 22.3972 38.269 22.0547C38.3344 22.304 38.3952 22.5486 38.4513 22.7979H38.4536Z" fill="#E26F3B"/>
<path d="M28.4031 11.9614C32.1451 15.0578 34.4451 19.7922 34.6297 24.6407L32.4537 24.7804C32.9679 20.2581 31.4369 15.3654 28.4008 11.9614H28.4031Z" fill="#E26F3B"/>
</g>
<defs>
<clipPath id="clip0_3183_6701">
<rect width="151" height="34" fill="white"/>
</clipPath>
</defs>
</svg>
